<svg width="41" height="41" viewBox="0 0 41 41" fill="none" xmlns="http://www.w3.org/2000/svg">
<g id="button-compress" clip-path="url(#clip0_47_727)">
<path id="Vector" d="M27.8089 13.1754H40.5206C40.9257 13.1754 41.4253 14.4406 40.3698 14.6358L27.4353 14.647C26.5351 14.6672 26.3978 14.1759 26.3348 13.3997C26.0084 9.46033 26.5891 5.07677 26.3415 1.09029C26.328 0.545145 26.7444 -0.222091 27.3633 0.060575C27.4286 0.089739 27.8089 0.473357 27.8089 0.504764V13.1754Z" fill="#B4AF9A"/>
<path id="Vector_2" d="M27.8092 27.8246V40.4952C27.8092 40.5266 27.4288 40.9102 27.3635 40.9394C26.7423 41.2198 26.326 40.4526 26.3417 39.9097C26.5916 35.921 26.0086 31.5396 26.335 27.6003C26.4003 26.8241 26.5353 26.3328 27.4355 26.353L40.37 26.3642C41.4256 26.5593 40.9259 27.8246 40.5208 27.8246H27.8092Z" fill="#B4AF9A"/>
<path id="Vector_3" d="M13.1144 13.1754V0.796419C13.1144 0.0112359 14.386 -0.374625 14.5796 0.652842L14.5908 13.8417C14.5773 14.2814 14.2195 14.6336 13.7829 14.647C9.69119 14.2881 4.84105 15.1024 0.841651 14.6426C-0.483979 14.49 0.0246672 13.1754 0.551318 13.1754H13.1144Z" fill="#B4AF9A"/>
<path id="Vector_4" d="M13.1144 27.8246H0.551318C0.0246672 27.8246 -0.483979 26.51 0.841651 26.3575C4.84105 25.8976 9.69119 26.7119 13.7829 26.353C14.2195 26.3665 14.5773 26.7187 14.5908 27.1584L14.5796 40.3472C14.386 41.3769 13.1144 40.991 13.1144 40.2036V27.8246Z" fill="#B4AF9A"/>
</g>
<defs>
<clipPath id="clip0_47_727">
<rect width="41" height="41" fill="white"/>
</clipPath>
</defs>
</svg>
