<svg width="31" height="24" viewBox="0 0 31 24" fill="none" xmlns="http://www.w3.org/2000/svg">
<rect width="31" height="24" fill="#1E1E1E"/>
<g id="project - xl" clip-path="url(#clip0_0_1)">
<rect width="1512" height="982" transform="translate(-1334 -835)" fill="#FFFEEC"/>
<g id="button-expand" clip-path="url(#clip1_0_1)">
<path id="Vector" d="M1.07818 1.08638V7.68523C1.07818 7.70316 0.8763 7.91834 0.839728 7.94075C0.40964 8.20375 0.177041 7.7719 0.121451 7.37889C-0.0687238 6.02356 -0.00728268 2.36551 0.108285 0.932471C0.158023 0.328773 0.223853 0.144974 0.832413 0.0896846C2.91702 -0.10308 5.28105 0.240609 7.39638 0.0971561C8.08832 0.230149 7.7621 1.08638 7.49586 1.08638H1.07818Z" fill="#B4AF9A"/>
<path id="Vector_2" d="M1.07818 22.9136H7.49586C7.7621 22.9136 8.08979 23.7714 7.39638 23.9029C5.28105 23.7594 2.91703 24.1016 0.832415 23.9103C0.223855 23.8536 0.158025 23.6713 0.10975 23.0661C-0.00581784 21.633 -0.067259 17.975 0.122916 16.6226C0.178506 16.2296 0.409642 15.7963 0.841193 16.0608C0.877765 16.0832 1.07964 16.2984 1.07964 16.3163V22.9151L1.07818 22.9136Z" fill="#B4AF9A"/>
<path id="Vector_3" d="M30.0303 1.08637H23.7091C23.3566 1.08637 23.0772 0.218177 23.8115 0.100127C25.7689 -0.210688 28.4343 0.322778 30.4691 0.0881727C30.7559 0.0971386 30.9899 0.336227 31.0002 0.633593L30.9928 7.5821C30.8656 8.27845 30.0303 8.01844 30.0303 7.48497V1.08637Z" fill="#B4AF9A"/>
<path id="Vector_4" d="M30.0299 22.9137V16.5136C30.0299 15.9816 30.8652 15.7201 30.9925 16.4164L30.9998 23.3649C30.991 23.6623 30.7555 23.9014 30.4687 23.9104C28.4339 23.6758 25.7685 24.2092 23.8111 23.8984C23.0753 23.7818 23.3562 22.9122 23.7087 22.9122H30.0299V22.9137Z" fill="#B4AF9A"/>
</g>
</g>
<defs>
<clipPath id="clip0_0_1">
<rect width="1512" height="982" fill="white" transform="translate(-1334 -835)"/>
</clipPath>
<clipPath id="clip1_0_1">
<rect width="31" height="24" fill="white"/>
</clipPath>
</defs>
</svg>
